<svg fill="#000000" xmlns="http://www.w3.org/2000/svg" viewBox="0 0 64 64" width="64px" height="64px"><path d="M 30.820313 2 C 27.054688 2.019531 23.230469 2.777344 19.558594 4.351563 C 4.863281 10.664063 -1.957031 27.75 4.351563 42.441406 C 9.066406 53.417969 19.789063 60 31.039063 60 C 34.851563 60 38.722656 59.242188 42.441406 57.644531 C 57.136719 51.335938 63.957031 34.25 57.644531 19.558594 C 52.914063 8.539063 42.121094 1.945313 30.820313 2 Z M 30.832031 4 C 41.351563 3.949219 51.402344 10.085938 55.8125 20.347656 C 61.683594 34.027344 55.332031 49.9375 41.652344 55.8125 C 27.972656 61.683594 12.0625 55.332031 6.1875 41.652344 C 0.316406 27.972656 6.667969 12.0625 20.347656 6.1875 C 23.765625 4.71875 27.324219 4.015625 30.832031 4 Z M 30.753906 7.078125 C 30.335938 7.074219 29.917969 7.082031 29.5 7.101563 C 28.949219 7.128906 28.523438 7.597656 28.546875 8.148438 C 28.574219 8.699219 29.070313 9.109375 29.59375 9.101563 C 30.363281 9.066406 31.128906 9.070313 31.890625 9.117188 C 31.910156 9.117188 31.929688 9.117188 31.949219 9.117188 C 32.472656 9.117188 32.914063 8.710938 32.949219 8.179688 C 32.980469 7.628906 32.5625 7.152344 32.011719 7.117188 C 31.59375 7.09375 31.175781 7.082031 30.753906 7.078125 Z M 25.398438 7.757813 C 25.269531 7.734375 25.136719 7.738281 25.003906 7.773438 C 19.921875 9.050781 15.394531 12.050781 12.25 16.210938 C 11.917969 16.652344 12.003906 17.28125 12.445313 17.609375 C 12.625 17.75 12.839844 17.8125 13.046875 17.8125 C 13.351563 17.8125 13.652344 17.675781 13.847656 17.417969 C 16.714844 13.617188 20.851563 10.882813 25.488281 9.710938 C 26.023438 9.578125 26.351563 9.03125 26.21875 8.5 C 26.117188 8.097656 25.785156 7.816406 25.398438 7.757813 Z M 32.277344 11.617188 C 23.671875 11.617188 14.777344 17.429688 14.777344 27.160156 C 14.777344 31.214844 16.042969 34.359375 18.34375 36.015625 C 19.019531 36.5 19.859375 36.417969 20.59375 35.800781 C 21.8125 34.78125 23.222656 31.597656 22.519531 30.140625 C 22.125 29.320313 21.949219 28.566406 21.949219 27.703125 C 21.949219 23.78125 24.65625 18.265625 30.675781 18.265625 C 33.515625 18.265625 36.328125 19.359375 38.019531 21.121094 C 39.234375 22.386719 39.816406 23.882813 39.75 25.578125 C 39.519531 31.339844 36.335938 36.242188 33.84375 36.203125 C 33.078125 36.191406 32.488281 35.929688 32.035156 35.398438 C 31.4375 34.6875 31.28125 33.6875 31.316406 33.441406 C 31.539063 32.507813 31.847656 31.519531 32.140625 30.558594 C 32.734375 28.652344 33.289063 26.847656 33.289063 25.277344 C 33.289063 23.363281 33.289063 20.160156 29.417969 20.046875 C 27.96875 20.019531 26.65625 20.546875 25.554688 21.613281 C 24.074219 23.050781 23.230469 25.246094 23.230469 27.640625 C 23.230469 28.609375 23.355469 29.566406 23.601563 30.488281 C 23.746094 31.023438 23.757813 31.535156 23.644531 32.015625 L 21.179688 42.464844 C 20.457031 45.515625 20.726563 49.03125 21.078125 51.433594 C 21.195313 52.332031 21.839844 53.066406 22.71875 53.304688 C 22.914063 53.359375 23.113281 53.386719 23.316406 53.386719 C 24.019531 53.382813 24.667969 53.066406 25.160156 52.433594 C 26.40625 50.839844 27.457031 47.03125 28.300781 43.96875 L 28.371094 43.707031 C 28.480469 43.300781 28.769531 42.183594 29.066406 41.019531 C 30.15625 41.863281 31.671875 42.746094 34.25 42.890625 C 37.445313 43.074219 40.414063 41.964844 42.824219 39.6875 C 46.113281 36.578125 48 31.597656 48 26.03125 C 48 22.304688 46.40625 18.636719 43.628906 15.96875 C 40.703125 13.164063 36.671875 11.617188 32.277344 11.617188 Z M 32.28125 13.613281 C 36.15625 13.613281 39.691406 14.964844 42.246094 17.410156 C 44.632813 19.707031 46 22.847656 46 26.03125 C 46 31.050781 44.339844 35.5 41.449219 38.234375 C 39.449219 40.125 36.984375 41.035156 34.359375 40.894531 C 31.820313 40.753906 30.707031 39.808594 29.625 38.894531 C 29.453125 38.746094 29.28125 38.601563 29.109375 38.464844 C 28.84375 38.25 28.488281 38.191406 28.167969 38.296875 C 27.84375 38.40625 27.601563 38.667969 27.515625 39 C 27.125 40.535156 26.601563 42.597656 26.441406 43.179688 L 26.371094 43.4375 C 25.617188 46.171875 24.585938 49.921875 23.527344 51.28125 C 23.472656 51.34375 23.386719 51.382813 23.238281 51.375 C 23.140625 51.347656 23.074219 51.269531 23.058594 51.15625 C 22.789063 49.320313 22.441406 45.8125 23.125 42.921875 L 25.59375 32.480469 C 25.78125 31.683594 25.757813 30.820313 25.53125 29.972656 C 25.328125 29.21875 25.226563 28.4375 25.226563 27.640625 C 25.226563 25.816406 25.871094 24.097656 26.949219 23.050781 C 27.425781 22.589844 28.207031 22.046875 29.265625 22.046875 C 29.296875 22.046875 29.328125 22.046875 29.359375 22.046875 C 30.878906 22.09375 31.289063 22.5 31.289063 25.277344 C 31.289063 26.546875 30.773438 28.207031 30.230469 29.96875 C 29.921875 30.957031 29.605469 31.984375 29.371094 32.984375 C 29.171875 33.816406 29.511719 35.417969 30.398438 36.550781 C 31.226563 37.613281 32.410156 38.1875 33.816406 38.203125 L 33.871094 38.203125 C 38.09375 38.203125 41.507813 31.601563 41.746094 25.660156 C 41.835938 23.429688 41.046875 21.382813 39.464844 19.734375 C 37.375 17.5625 34.089844 16.265625 30.675781 16.265625 C 25.40625 16.265625 19.949219 20.542969 19.949219 27.703125 C 19.949219 28.867188 20.191406 29.914063 20.703125 30.96875 C 20.871094 31.613281 19.949219 33.765625 19.339844 34.261719 C 17.707031 32.960938 16.777344 30.390625 16.777344 27.15625 C 16.777344 18.679688 24.65625 13.613281 32.28125 13.613281 Z M 47.070313 43.058594 C 46.816406 43.09375 46.578125 43.226563 46.410156 43.449219 C 46.082031 43.890625 46.171875 44.519531 46.613281 44.847656 L 48.21875 46.046875 C 48.398438 46.183594 48.609375 46.246094 48.816406 46.246094 C 49.121094 46.246094 49.421875 46.105469 49.617188 45.84375 C 49.949219 45.402344 49.859375 44.773438 49.417969 44.445313 L 47.8125 43.25 C 47.589844 43.082031 47.324219 43.023438 47.070313 43.058594 Z M 43.78125 46.703125 C 43.523438 46.671875 43.261719 46.738281 43.042969 46.90625 C 42.609375 47.25 42.535156 47.878906 42.875 48.3125 L 44.113281 49.886719 C 44.308594 50.136719 44.605469 50.265625 44.902344 50.265625 C 45.117188 50.265625 45.335938 50.195313 45.515625 50.050781 C 45.953125 49.707031 46.027344 49.078125 45.683594 48.644531 L 44.445313 47.074219 C 44.273438 46.859375 44.035156 46.730469 43.78125 46.703125 Z M 39.28125 49.296875 C 39.148438 49.296875 39.019531 49.324219 38.890625 49.375 C 38.382813 49.59375 38.148438 50.183594 38.367188 50.6875 L 39.15625 52.527344 C 39.320313 52.90625 39.6875 53.132813 40.078125 53.132813 C 40.207031 53.132813 40.339844 53.109375 40.46875 53.050781 C 40.980469 52.835938 41.210938 52.246094 40.996094 51.738281 L 40.203125 49.902344 C 40.039063 49.519531 39.667969 49.292969 39.28125 49.296875 Z M 34.242188 50.6875 C 33.695313 50.765625 33.316406 51.273438 33.394531 51.820313 L 33.683594 53.800781 C 33.753906 54.296875 34.183594 54.65625 34.671875 54.65625 C 34.71875 54.65625 34.765625 54.652344 34.816406 54.644531 C 35.363281 54.566406 35.742188 54.058594 35.660156 53.511719 L 35.375 51.53125 C 35.296875 50.984375 34.789063 50.597656 34.242188 50.6875 Z M 29.414063 50.75 C 28.863281 50.683594 28.367188 51.078125 28.300781 51.625 L 28.066406 53.609375 C 28.003906 54.160156 28.394531 54.65625 28.941406 54.71875 C 28.984375 54.726563 29.023438 54.730469 29.0625 54.730469 C 29.5625 54.730469 29.996094 54.355469 30.054688 53.84375 L 30.289063 51.859375 C 30.355469 51.3125 29.960938 50.816406 29.414063 50.75 Z"/></svg>