<svg width="50" height="50" xmlns="http://www.w3.org/2000/svg">

 <g>
  <title>background</title>
  <rect fill="none" id="canvas_background" height="402" width="582" y="-1" x="-1"/>
 </g>
 <g>
  <title>Layer 1</title>
  <path fill="#d1d1d1" id="svg_1" d="m25,2c-12.69071,0 -23,10.30929 -23,23c0,12.690701 10.30929,23 23,23c12.690701,0 23,-10.309299 23,-23c0,-12.69071 -10.309299,-23 -23,-23zm0,2c11.609829,0 21,9.39018 21,21c0,11.609829 -9.390171,21 -21,21c-11.60982,0 -21,-9.390171 -21,-21c0,-11.60982 9.39018,-21 21,-21zm-1,9l0,11l-11,0l0,2l11,0l0,11l2,0l0,-11l11,0l0,-2l-11,0l0,-11l-2,0z"/>
 </g>
</svg>