<svg width="294.156" height="294.156" xmlns="http://www.w3.org/2000/svg">

 <g>
  <title>background</title>
  <rect fill="none" id="canvas_background" height="402" width="582" y="-1" x="-1"/>
 </g>
 <g>
  <title>Layer 1</title>
  <g id="svg_1">
   <path fill="#d1d1d1" id="svg_2" d="m227.001999,108.255997c-2.755005,-41.750999 -37.600006,-74.877998 -80.035995,-74.877998c-42.447006,0 -77.298004,33.140999 -80.03801,74.907005c-37.949993,4.773994 -66.927994,37.104996 -66.927994,75.899002c0,42.234009 34.360001,76.595016 76.595001,76.595016l116.483002,0c3.313004,0 6,-2.687012 6,-6.000015s-2.686996,-6 -6,-6l-116.483002,0c-35.618,-0.001007 -64.595001,-28.978012 -64.595001,-64.595001c0,-34.275009 26.833,-62.568008 61.086998,-64.411003c3.184006,-0.171005 5.678001,-2.803001 5.678001,-5.991005c0,-0.118996 -0.002998,-0.236 -0.010002,-0.354996c0.090004,-37.536003 30.653999,-68.049004 68.211006,-68.049004c37.563004,0 68.132004,30.518005 68.210999,68.063004c-0.005005,0.115997 -0.009003,0.237999 -0.009003,0.328995c0,3.196007 2.505005,5.831001 5.695999,5.992004c34.369995,1.740997 61.292007,30.038002 61.292007,64.420998c0,19.526001 -8.697998,37.800995 -23.864014,50.138c-2.570999,2.091003 -2.959,5.869995 -0.867981,8.440002c2.091003,2.570999 5.869995,2.959 8.440002,0.867996c17.97998,-14.625992 28.291992,-36.292999 28.291992,-59.446991c0,-38.91301 -29.076019,-71.256004 -67.154007,-75.92601z"/>
   <path fill="#d1d1d1" id="svg_3" d="m140.966003,141.078003l0,76.511002c0,3.312988 2.686996,6 6,6s6,-2.687012 6,-6l0,-76.511002c0,-3.313004 -2.686996,-6 -6,-6s-6,2.686996 -6,6z"/>
   <path fill="#d1d1d1" id="svg_4" d="m181.283005,152.203995c1.535995,0 3.070999,-0.585999 4.242996,-1.757004c2.343002,-2.343002 2.343002,-6.141998 0,-8.484985l-34.317001,-34.317017c-2.343002,-2.343002 -6.143005,-2.343002 -8.485001,0l-34.317001,34.317017c-2.342995,2.342987 -2.342995,6.141998 0,8.484985c2.343002,2.343002 6.143005,2.343002 8.485001,0l30.074005,-30.07399l30.07399,30.07399c1.172012,1.171005 2.708008,1.757004 4.243011,1.757004z"/>
  </g>
  <g id="svg_5"/>
  <g id="svg_6"/>
  <g id="svg_7"/>
  <g id="svg_8"/>
  <g id="svg_9"/>
  <g id="svg_10"/>
  <g id="svg_11"/>
  <g id="svg_12"/>
  <g id="svg_13"/>
  <g id="svg_14"/>
  <g id="svg_15"/>
  <g id="svg_16"/>
  <g id="svg_17"/>
  <g id="svg_18"/>
  <g id="svg_19"/>
 </g>
</svg>